<svg xmlns="http://www.w3.org/2000/svg" xmlns:xlink="http://www.w3.org/1999/xlink" width="960" height="576" viewBox="0 0 720 432"><defs><style>*{stroke-linejoin:round;stroke-linecap:butt}</style></defs><g id="figure_1"><path id="patch_1" d="M0 432h720V0H0z"/><g id="axes_1"><path id="patch_2" d="M44.62 390.04H709.2V32.16H44.61z"/><g id="matplotlib.axis_1"><g id="xtick_1"><path id="line2d_1" d="M81.3 390.04V32.16" clip-path="url(#p30d6ae103b)" style="fill:none;stroke-dasharray:1.85,.8;stroke-dashoffset:0;stroke:gray;stroke-opacity:.5;stroke-width:.5"/><g id="line2d_2"><defs><path id="m2bf309b072" d="M0 0v3.5" style="stroke:gray;stroke-width:.8"/></defs><use xlink:href="#m2bf309b072" x="81.29" y="390.04" style="fill:gray;stroke:gray;stroke-width:.8"/></g><g id="text_1" style="fill:gray" transform="matrix(.1 0 0 -.1 68.57 404.64)"><defs><path id="DejaVuSans-36" d="M2113 2584q-425 0-674-291-248-290-248-796 0-503 248-796 249-292 674-292t673 292q248 293 248 796 0 506-248 796-248 291-673 291zm1253 1979v-575q-238 112-480 171-242 60-480 60-625 0-955-422-329-422-376-1275 184 272 462 417 279 145 613 145 703 0 1111-427 408-426 408-1160 0-719-425-1154Q2819-91 2113-91q-810 0-1238 620-428 621-428 1799 0 1106 525 1764t1409 658q238 0 480-47t505-140z" transform="scale(.01563)"/><path id="DejaVuSans-34" d="M2419 4116 825 1625h1594v2491zm-166 550h794V1625h666v-525h-666V0h-628v1100H313v609l1940 2957z" transform="scale(.01563)"/><path id="DejaVuSans-30" d="M2034 4250q-487 0-733-480-245-479-245-1442 0-959 245-1439 246-480 733-480 491 0 736 480 246 480 246 1439 0 963-246 1442-245 480-736 480zm0 500q785 0 1199-621 414-620 414-1801 0-1178-414-1799Q2819-91 2034-91q-784 0-1198 620-414 621-414 1799 0 1181 414 1801 414 621 1198 621z" transform="scale(.01563)"/></defs><use xlink:href="#DejaVuSans-36"/><use xlink:href="#DejaVuSans-34" x="63.62"/><use xlink:href="#DejaVuSans-30" x="127.25"/><use xlink:href="#DejaVuSans-30" x="190.87"/></g></g><g id="xtick_2"><path id="line2d_3" d="M171.79 390.04V32.16" clip-path="url(#p30d6ae103b)" style="fill:none;stroke-dasharray:1.85,.8;stroke-dashoffset:0;stroke:gray;stroke-opacity:.5;stroke-width:.5"/><use xlink:href="#m2bf309b072" id="line2d_4" x="171.79" y="390.04" style="fill:gray;stroke:gray;stroke-width:.8"/><g id="text_2" style="fill:gray" transform="matrix(.1 0 0 -.1 159.06 404.64)"><use xlink:href="#DejaVuSans-36"/><use xlink:href="#DejaVuSans-36" x="63.62"/><use xlink:href="#DejaVuSans-30" x="127.25"/><use xlink:href="#DejaVuSans-30" x="190.87"/></g></g><g id="xtick_3"><path id="line2d_5" d="M262.28 390.04V32.16" clip-path="url(#p30d6ae103b)" style="fill:none;stroke-dasharray:1.85,.8;stroke-dashoffset:0;stroke:gray;stroke-opacity:.5;stroke-width:.5"/><use xlink:href="#m2bf309b072" id="line2d_6" x="262.28" y="390.04" style="fill:gray;stroke:gray;stroke-width:.8"/><g id="text_3" style="fill:gray" transform="matrix(.1 0 0 -.1 249.56 404.64)"><defs><path id="DejaVuSans-38" d="M2034 2216q-450 0-708-241-257-241-257-662 0-422 257-663 258-241 708-241t709 242q260 243 260 662 0 421-258 662-257 241-711 241zm-631 268q-406 100-633 378-226 279-226 679 0 559 398 884 399 325 1092 325 697 0 1094-325t397-884q0-400-227-679-226-278-629-378 456-106 710-416 255-309 255-755 0-679-414-1042Q2806-91 2034-91q-771 0-1186 362-414 363-414 1042 0 446 256 755 257 310 713 416zm-231 997q0-362 226-565 227-203 636-203 407 0 636 203 230 203 230 565 0 363-230 566-229 203-636 203-409 0-636-203-226-203-226-566z" transform="scale(.01563)"/></defs><use xlink:href="#DejaVuSans-36"/><use xlink:href="#DejaVuSans-38" x="63.62"/><use xlink:href="#DejaVuSans-30" x="127.25"/><use xlink:href="#DejaVuSans-30" x="190.87"/></g></g><g id="xtick_4"><path id="line2d_7" d="M352.78 390.04V32.16" clip-path="url(#p30d6ae103b)" style="fill:none;stroke-dasharray:1.85,.8;stroke-dashoffset:0;stroke:gray;stroke-opacity:.5;stroke-width:.5"/><use xlink:href="#m2bf309b072" id="line2d_8" x="352.78" y="390.04" style="fill:gray;stroke:gray;stroke-width:.8"/><g id="text_4" style="fill:gray" transform="matrix(.1 0 0 -.1 340.05 404.64)"><defs><path id="DejaVuSans-37" d="M525 4666h3000v-269L1831 0h-659l1594 4134H525v532z" transform="scale(.01563)"/></defs><use xlink:href="#DejaVuSans-37"/><use xlink:href="#DejaVuSans-30" x="63.62"/><use xlink:href="#DejaVuSans-30" x="127.25"/><use xlink:href="#DejaVuSans-30" x="190.87"/></g></g><g id="xtick_5"><path id="line2d_9" d="M443.27 390.04V32.16" clip-path="url(#p30d6ae103b)" style="fill:none;stroke-dasharray:1.85,.8;stroke-dashoffset:0;stroke:gray;stroke-opacity:.5;stroke-width:.5"/><use xlink:href="#m2bf309b072" id="line2d_10" x="443.27" y="390.04" style="fill:gray;stroke:gray;stroke-width:.8"/><g id="text_5" style="fill:gray" transform="matrix(.1 0 0 -.1 430.55 404.64)"><defs><path id="DejaVuSans-32" d="M1228 531h2203V0H469v531q359 372 979 998 621 627 780 809 303 340 423 576 121 236 121 464 0 372-261 606-261 235-680 235-297 0-627-103-329-103-704-313v638q381 153 712 231 332 78 607 78 725 0 1156-363 431-362 431-968 0-288-108-546-107-257-392-607-78-91-497-524-418-433-1181-1211z" transform="scale(.01563)"/></defs><use xlink:href="#DejaVuSans-37"/><use xlink:href="#DejaVuSans-32" x="63.62"/><use xlink:href="#DejaVuSans-30" x="127.25"/><use xlink:href="#DejaVuSans-30" x="190.87"/></g></g><g id="xtick_6"><path id="line2d_11" d="M533.77 390.04V32.16" clip-path="url(#p30d6ae103b)" style="fill:none;stroke-dasharray:1.85,.8;stroke-dashoffset:0;stroke:gray;stroke-opacity:.5;stroke-width:.5"/><use xlink:href="#m2bf309b072" id="line2d_12" x="533.77" y="390.04" style="fill:gray;stroke:gray;stroke-width:.8"/><g id="text_6" style="fill:gray" transform="matrix(.1 0 0 -.1 521.05 404.64)"><use xlink:href="#DejaVuSans-37"/><use xlink:href="#DejaVuSans-34" x="63.62"/><use xlink:href="#DejaVuSans-30" x="127.25"/><use xlink:href="#DejaVuSans-30" x="190.87"/></g></g><g id="xtick_7"><path id="line2d_13" d="M624.27 390.04V32.16" clip-path="url(#p30d6ae103b)" style="fill:none;stroke-dasharray:1.85,.8;stroke-dashoffset:0;stroke:gray;stroke-opacity:.5;stroke-width:.5"/><use xlink:href="#m2bf309b072" id="line2d_14" x="624.27" y="390.04" style="fill:gray;stroke:gray;stroke-width:.8"/><g id="text_7" style="fill:gray" transform="matrix(.1 0 0 -.1 611.54 404.64)"><use xlink:href="#DejaVuSans-37"/><use xlink:href="#DejaVuSans-36" x="63.62"/><use xlink:href="#DejaVuSans-30" x="127.25"/><use xlink:href="#DejaVuSans-30" x="190.87"/></g></g><g id="text_8" style="fill:#dcdcdc" transform="matrix(.1 0 0 -.1 334.77 418.37)"><defs><path id="DejaVuSansMono-42" d="M1153 2228V519h747q550 0 784 192 235 192 235 633 0 456-247 670t-772 214h-747zm0 1919V2741h735q456 0 660 175 205 175 205 565 0 353-202 509-201 157-663 157h-735zm-634 519h1381q716 0 1103-310 388-309 388-875 0-428-205-675t-614-309q459-69 720-393 261-323 261-823 0-634-416-958Q2722 0 1900 0H519v4666z" transform="scale(.01563)"/><path id="DejaVuSansMono-69" d="M800 3500h1472V447h1141V0H556v447h1141v2606H800v447zm897 1363h575v-729h-575v729z" transform="scale(.01563)"/><path id="DejaVuSansMono-74" d="M1919 4494v-994h1306v-447H1919V1153q0-387 147-541 147-153 512-153h647V0h-703q-647 0-913 259-265 260-265 894v1900H409v447h935v994h575z" transform="scale(.01563)"/><path id="DejaVuSansMono-72" d="M3609 2778q-184 144-375 209-190 66-418 66-538 0-823-338-284-337-284-974V0h-578v3500h578v-684q144 372 442 570 299 198 708 198 213 0 397-53 185-53 353-165v-588z" transform="scale(.01563)"/><path id="DejaVuSansMono-61" d="M2194 1759h-191q-503 0-758-177-254-176-254-526 0-315 190-490 191-175 528-175 475 0 747 329 272 330 275 911v128h-537zm1115 238V0h-578v519q-184-313-464-462-279-148-679-148-535 0-854 302-318 302-318 808 0 584 392 887t1151 303h772v91q-3 419-213 608-209 189-668 189-294 0-594-85-300-84-584-246v575q319 122 611 182 292 61 567 61 434 0 742-128t499-384q118-156 168-386t50-689z" transform="scale(.01563)"/><path id="DejaVuSansMono-65" d="M3475 1894v-281H984v-19q0-572 298-885 299-312 843-312 275 0 575 87 300 88 641 266V178Q3013 44 2708-23q-305-68-589-68-816 0-1276 489-459 490-459 1349 0 837 450 1337t1200 500q669 0 1055-453t386-1237zm-575 169q-12 506-239 770t-652 264q-415 0-684-275t-319-763l1894 4z" transform="scale(.01563)"/><path id="DejaVuSansMono-28" d="M2766 4856q-416-712-621-1420-204-708-204-1427 0-715 204-1425 205-709 621-1428h-500q-472 744-704 1448-231 705-231 1405 0 697 231 1403 232 707 704 1444h500z" transform="scale(.01563)"/><path id="DejaVuSansMono-6b" d="M738 4863h593V2047l1510 1453h700L2163 2181 3756 0h-703L1759 1806l-428-403V0H738v4863z" transform="scale(.01563)"/><path id="DejaVuSansMono-62" d="M2869 1747q0 669-213 1009-212 341-628 341-419 0-635-342-215-342-215-1008 0-663 215-1007 216-343 635-343 416 0 628 340 213 341 213 1010zM1178 3053q138 256 380 393 242 138 561 138 631 0 993-486 363-485 363-1339 0-865-364-1358-364-492-998-492-313 0-552 136t-383 396V0H603v4863h575V3053z" transform="scale(.01563)"/><path id="DejaVuSansMono-2f" d="M2778 4666h594L916-594H319l2459 5260z" transform="scale(.01563)"/><path id="DejaVuSansMono-73" d="M3041 3378v-562q-247 143-497 215t-510 72q-390 0-583-127-192-126-192-385 0-235 144-351 144-115 716-224l231-44q428-81 648-325 221-244 221-634 0-519-369-812Q2481-91 1825-91q-259 0-544 55-284 55-615 164v594q322-166 615-249 294-82 557-82 381 0 590 154 210 155 210 433 0 400-766 553l-25 7-216 43q-497 97-725 327t-228 626q0 504 340 777 341 273 973 273 281 0 540-52 260-51 510-154z" transform="scale(.01563)"/><path id="DejaVuSansMono-29" d="M1088 4856h500q471-737 702-1444 232-706 232-1403 0-703-232-1409-231-706-702-1444h-500q415 725 620 1434 205 710 205 1419 0 713-205 1422-205 710-620 1425z" transform="scale(.01563)"/></defs><use xlink:href="#DejaVuSansMono-42"/><use xlink:href="#DejaVuSansMono-69" x="60.21"/><use xlink:href="#DejaVuSansMono-74" x="120.41"/><use xlink:href="#DejaVuSansMono-72" x="180.62"/><use xlink:href="#DejaVuSansMono-61" x="240.82"/><use xlink:href="#DejaVuSansMono-74" x="301.03"/><use xlink:href="#DejaVuSansMono-65" x="361.23"/><use xlink:href="#DejaVuSansMono-20" x="421.44"/><use xlink:href="#DejaVuSansMono-28" x="481.64"/><use xlink:href="#DejaVuSansMono-6b" x="541.85"/><use xlink:href="#DejaVuSansMono-62" x="602.05"/><use xlink:href="#DejaVuSansMono-2f" x="662.26"/><use xlink:href="#DejaVuSansMono-73" x="722.46"/><use xlink:href="#DejaVuSansMono-29" x="782.67"/></g></g><g id="matplotlib.axis_2"><g id="ytick_1"><path id="line2d_15" d="M44.62 336.16H709.2" clip-path="url(#p30d6ae103b)" style="fill:none;stroke-dasharray:1.85,.8;stroke-dashoffset:0;stroke:gray;stroke-opacity:.5;stroke-width:.5"/><g id="line2d_16"><defs><path id="m22ea30721a" d="M0 0h-3.5" style="stroke:gray;stroke-width:.8"/></defs><use xlink:href="#m22ea30721a" x="44.62" y="336.16" style="fill:gray;stroke:gray;stroke-width:.8"/></g><g id="text_9" style="fill:gray" transform="matrix(.1 0 0 -.1 24.89 339.96)"><use xlink:href="#DejaVuSans-34"/><use xlink:href="#DejaVuSans-30" x="63.62"/></g></g><g id="ytick_2"><path id="line2d_17" d="M44.62 274.6H709.2" clip-path="url(#p30d6ae103b)" style="fill:none;stroke-dasharray:1.85,.8;stroke-dashoffset:0;stroke:gray;stroke-opacity:.5;stroke-width:.5"/><use xlink:href="#m22ea30721a" id="line2d_18" x="44.62" y="274.6" style="fill:gray;stroke:gray;stroke-width:.8"/><g id="text_10" style="fill:gray" transform="matrix(.1 0 0 -.1 24.89 278.4)"><defs><path id="DejaVuSans-31" d="M794 531h1031v3560L703 3866v575l1116 225h631V531h1031V0H794v531z" transform="scale(.01563)"/></defs><use xlink:href="#DejaVuSans-34"/><use xlink:href="#DejaVuSans-31" x="63.62"/></g></g><g id="ytick_3"><path id="line2d_19" d="M44.62 213.04H709.2" clip-path="url(#p30d6ae103b)" style="fill:none;stroke-dasharray:1.85,.8;stroke-dashoffset:0;stroke:gray;stroke-opacity:.5;stroke-width:.5"/><use xlink:href="#m22ea30721a" id="line2d_20" x="44.62" y="213.04" style="fill:gray;stroke:gray;stroke-width:.8"/><g id="text_11" style="fill:gray" transform="matrix(.1 0 0 -.1 24.89 216.84)"><use xlink:href="#DejaVuSans-34"/><use xlink:href="#DejaVuSans-32" x="63.62"/></g></g><g id="ytick_4"><path id="line2d_21" d="M44.62 151.48H709.2" clip-path="url(#p30d6ae103b)" style="fill:none;stroke-dasharray:1.85,.8;stroke-dashoffset:0;stroke:gray;stroke-opacity:.5;stroke-width:.5"/><use xlink:href="#m22ea30721a" id="line2d_22" x="44.62" y="151.48" style="fill:gray;stroke:gray;stroke-width:.8"/><g id="text_12" style="fill:gray" transform="matrix(.1 0 0 -.1 24.89 155.28)"><defs><path id="DejaVuSans-33" d="M2597 2516q453-97 707-404 255-306 255-756 0-690-475-1069Q2609-91 1734-91q-293 0-604 58T488 141v609q262-153 574-231 313-78 654-78 593 0 904 234t311 681q0 413-289 645-289 233-804 233h-544v519h569q465 0 712 186t247 536q0 359-255 551-254 193-729 193-260 0-557-57-297-56-653-174v562q360 100 674 150t592 50q719 0 1137-327 419-326 419-882 0-388-222-655t-631-370z" transform="scale(.01563)"/></defs><use xlink:href="#DejaVuSans-34"/><use xlink:href="#DejaVuSans-33" x="63.62"/></g></g><g id="ytick_5"><path id="line2d_23" d="M44.62 89.92H709.2" clip-path="url(#p30d6ae103b)" style="fill:none;stroke-dasharray:1.85,.8;stroke-dashoffset:0;stroke:gray;stroke-opacity:.5;stroke-width:.5"/><use xlink:href="#m22ea30721a" id="line2d_24" x="44.62" y="89.92" style="fill:gray;stroke:gray;stroke-width:.8"/><g id="text_13" style="fill:gray" transform="matrix(.1 0 0 -.1 24.89 93.72)"><use xlink:href="#DejaVuSans-34"/><use xlink:href="#DejaVuSans-34" x="63.62"/></g></g><g id="text_14" style="fill:#dcdcdc" transform="matrix(0 -.1 -.1 0 18.81 304.41)"><defs><path id="DejaVuSansMono-48" d="M428 4666h635V2753h1728v1913h634V0h-634v2222H1063V0H428v4666z" transform="scale(.01563)"/><path id="DejaVuSansMono-6d" d="M2113 3144q106 225 270 332 164 108 395 108 422 0 595-327 174-326 174-1229V0h-525v2003q0 741-83 920-83 180-301 180-250 0-343-192-92-192-92-908V0h-525v2003q0 750-89 925t-320 175q-228 0-317-192t-89-908V0H341v3500h522v-300q103 188 257 286 155 98 352 98 237 0 395-109t246-331z" transform="scale(.01563)"/><path id="DejaVuSansMono-6f" d="M1925 3097q-437 0-662-341-225-340-225-1009 0-666 225-1008t662-342q441 0 666 342t225 1008q0 669-225 1009-225 341-666 341zm0 487q728 0 1114-472 386-471 386-1365 0-897-385-1368Q2656-91 1925-91q-728 0-1113 470-384 471-384 1368 0 894 384 1365 385 472 1113 472z" transform="scale(.01563)"/><path id="DejaVuSansMono-6e" d="M3284 2169V0h-578v2169q0 472-166 693-165 222-518 222-403 0-621-286-217-285-217-820V0H609v3500h575v-525q154 300 416 454 263 155 622 155 534 0 798-352 264-351 264-1063z" transform="scale(.01563)"/><path id="DejaVuSansMono-63" d="M3316 178Q3084 44 2839-23q-245-68-501-68-813 0-1271 487-458 488-458 1351 0 862 458 1349 458 488 1271 488 253 0 493-66 241-65 485-202v-603q-228 203-458 293-230 91-520 91-541 0-832-350-290-350-290-1000 0-647 292-999 292-351 830-351 300 0 537 92 238 92 441 286V178z" transform="scale(.01563)"/><path id="DejaVuSansMono-4d" d="M269 4666h844l806-2375 812 2375h847V0h-584v4122l-831-2459h-479L850 4122V0H269v4666z" transform="scale(.01563)"/><path id="DejaVuSansMono-53" d="M3163 4506v-640q-288 184-577 278t-583 94q-447 0-706-208t-259-561q0-310 170-473 170-162 636-271l331-75q656-153 956-481t300-894q0-666-413-1016Q2606-91 1819-91q-328 0-660 71-331 70-665 211v672q359-229 679-335 321-106 646-106 478 0 743 214 266 214 266 598 0 350-183 534-182 185-636 285l-337 78q-650 147-944 444t-294 797q0 625 420 1001 421 377 1118 377 269 0 565-61 297-61 626-183z" transform="scale(.01563)"/><path id="DejaVuSansMono-49" d="M628 4666h2591v-532h-978V531h978V0H628v531h978v3603H628v532z" transform="scale(.01563)"/><path id="DejaVuSansMono-55" d="M459 1791v2875h635V1503q0-340 18-486 19-145 66-223 100-185 289-279 189-93 458-93 272 0 459 93 188 94 291 279 47 78 65 221 19 144 19 482v3169h632V1791q0-716-89-1018-89-301-308-498Q2788 91 2522 0t-597-91q-328 0-594 91-265 91-475 275-215 194-306 501-91 308-91 1015z" transform="scale(.01563)"/><path id="DejaVuSansMono-4c" d="M672 4666h634V531h2253V0H672v4666z" transform="scale(.01563)"/><path id="DejaVuSansMono-41" d="m1925 4109-666-2387h1332l-666 2387zm-381 557h765L3738 0h-654l-343 1216H1106L769 0H116l1428 4666z" transform="scale(.01563)"/><path id="DejaVuSansMono-43" d="M3353 166Q3113 38 2859-26q-253-65-537-65-897 0-1393 634-495 635-495 1785 0 1144 498 1783 499 639 1390 639 284 0 537-64 254-64 494-192v-647q-231 191-497 291-265 100-534 100-616 0-922-475t-306-1435q0-956 306-1431t922-475q275 0 539 100t492 291V166z" transform="scale(.01563)"/><path id="DejaVuSansMono-52" d="M2375 2203q244-62 416-236 172-173 428-692L3853 0h-678l-556 1178q-241 503-433 648-192 146-502 146h-603V0H447v4666h1300q769 0 1178-347t409-1003q0-463-252-755-251-292-707-358zM1081 4147V2491h691q453 0 675 203t222 622q0 403-236 617t-686 214h-666z" transform="scale(.01563)"/><path id="DejaVuSansMono-32" d="M1166 531h2143V0H475v531q584 616 1021 1088 438 472 604 665 313 382 422 618t109 482q0 391-230 613-229 222-629 222-284 0-597-103-312-103-662-313v638q321 153 632 231t614 78q685 0 1102-364t417-955q0-300-139-600t-451-662q-175-203-508-563-333-359-1014-1075z" transform="scale(.01563)"/></defs><use xlink:href="#DejaVuSansMono-48"/><use xlink:href="#DejaVuSansMono-61" x="60.21"/><use xlink:href="#DejaVuSansMono-72" x="120.41"/><use xlink:href="#DejaVuSansMono-6d" x="180.62"/><use xlink:href="#DejaVuSansMono-6f" x="240.82"/><use xlink:href="#DejaVuSansMono-6e" x="301.03"/><use xlink:href="#DejaVuSansMono-69" x="361.23"/><use xlink:href="#DejaVuSansMono-63" x="421.44"/><use xlink:href="#DejaVuSansMono-20" x="481.64"/><use xlink:href="#DejaVuSansMono-4d" x="541.85"/><use xlink:href="#DejaVuSansMono-65" x="602.05"/><use xlink:href="#DejaVuSansMono-61" x="662.26"/><use xlink:href="#DejaVuSansMono-6e" x="722.46"/><use xlink:href="#DejaVuSansMono-20" x="782.67"/><use xlink:href="#DejaVuSansMono-53" x="842.87"/><use xlink:href="#DejaVuSansMono-53" x="903.08"/><use xlink:href="#DejaVuSansMono-49" x="963.28"/><use xlink:href="#DejaVuSansMono-4d" x="1023.49"/><use xlink:href="#DejaVuSansMono-55" x="1083.69"/><use xlink:href="#DejaVuSansMono-4c" x="1143.9"/><use xlink:href="#DejaVuSansMono-41" x="1204.1"/><use xlink:href="#DejaVuSansMono-43" x="1264.31"/><use xlink:href="#DejaVuSansMono-52" x="1324.51"/><use xlink:href="#DejaVuSansMono-41" x="1384.72"/><use xlink:href="#DejaVuSansMono-32" x="1444.92"/><use xlink:href="#DejaVuSansMono-20" x="1505.13"/><use xlink:href="#DejaVuSansMono-53" x="1565.33"/><use xlink:href="#DejaVuSansMono-63" x="1625.54"/><use xlink:href="#DejaVuSansMono-6f" x="1685.74"/><use xlink:href="#DejaVuSansMono-72" x="1745.95"/><use xlink:href="#DejaVuSansMono-65" x="1806.15"/></g></g><g id="line2d_25"><path d="m629.13 373.77 49.86-39.28" clip-path="url(#p30d6ae103b)" style="fill:none;stroke-dasharray:9.6,2.4,1.5,2.4;stroke-dashoffset:0;stroke:#8dd3c7;stroke-width:1.5"/><defs><path id="m0f926a159b" d="M0 3a3 3 0 1 0 0-6 3 3 0 0 0 0 6z" style="stroke:#8dd3c7"/></defs><g clip-path="url(#p30d6ae103b)"><use xlink:href="#m0f926a159b" x="629.13" y="373.77" style="fill:#8dd3c7;stroke:#8dd3c7"/><use xlink:href="#m0f926a159b" x="678.99" y="334.49" style="fill:#8dd3c7;stroke:#8dd3c7"/></g></g><g id="line2d_26"><path d="M74.82 236 394.25 48.44" clip-path="url(#p30d6ae103b)" style="fill:none;stroke-dasharray:9.6,2.4,1.5,2.4;stroke-dashoffset:0;stroke:#feffb3;stroke-width:1.5"/><defs><path id="m755a35b9d5" d="M0 3a3 3 0 1 0 0-6 3 3 0 0 0 0 6z" style="stroke:#feffb3"/></defs><g clip-path="url(#p30d6ae103b)"><use xlink:href="#m755a35b9d5" x="74.82" y="236.01" style="fill:#feffb3;stroke:#feffb3"/><use xlink:href="#m755a35b9d5" x="394.25" y="48.43" style="fill:#feffb3;stroke:#feffb3"/></g></g><path id="patch_3" d="M44.62 390.04V32.16" style="fill:none;stroke:gray;stroke-width:.8;stroke-linejoin:miter;stroke-linecap:square"/><path id="patch_4" d="M709.2 390.04V32.16" style="fill:none;stroke:gray;stroke-width:.8;stroke-linejoin:miter;stroke-linecap:square"/><path id="patch_5" d="M44.62 390.04H709.2" style="fill:none;stroke:gray;stroke-width:.8;stroke-linejoin:miter;stroke-linecap:square"/><path id="patch_6" d="M44.62 32.16H709.2" style="fill:none;stroke:gray;stroke-width:.8;stroke-linejoin:miter;stroke-linecap:square"/><g id="text_15" style="fill:#fff" transform="matrix(.1 0 0 -.1 612.92 363.77)"><defs><path id="DejaVuSans-43" d="M4122 4306v-665q-319 297-680 443-361 147-767 147-800 0-1225-489t-425-1414q0-922 425-1411t1225-489q406 0 767 147t680 444V359q-331-225-702-338-370-112-782-112-1060 0-1670 648-609 649-609 1771 0 1125 609 1773 610 649 1670 649 418 0 788-111 371-111 696-333z" transform="scale(.01563)"/><path id="DejaVuSans-52" d="M2841 2188q203-69 395-294t386-619L4263 0h-679l-596 1197q-232 469-449 622t-592 153h-688V0H628v4666h1425q800 0 1194-335 394-334 394-1009 0-441-205-732-205-290-595-402zM1259 4147V2491h794q456 0 689 211t233 620q0 409-233 617t-689 208h-794z" transform="scale(.01563)"/><path id="DejaVuSans-46" d="M628 4666h2681v-532H1259V2759h1850v-531H1259V0H628v4666z" transform="scale(.01563)"/></defs><use xlink:href="#DejaVuSans-43"/><use xlink:href="#DejaVuSans-52" x="69.82"/><use xlink:href="#DejaVuSans-46" x="139.31"/><use xlink:href="#DejaVuSans-32" x="196.83"/><use xlink:href="#DejaVuSans-30" x="260.45"/></g><g id="text_16" style="fill:#fff" transform="matrix(.1 0 0 -.1 662.79 324.49)"><defs><path id="DejaVuSans-35" d="M691 4666h2478v-532H1269V2991q137 47 274 70 138 23 276 23 781 0 1237-428 457-428 457-1159 0-753-469-1171Q2575-91 1722-91q-294 0-599 50Q819 9 494 109v635q281-153 581-228t634-75q541 0 856 284 316 284 316 772 0 487-316 771-315 285-856 285-253 0-505-56-251-56-513-175v2344z" transform="scale(.01563)"/></defs><use xlink:href="#DejaVuSans-43"/><use xlink:href="#DejaVuSans-52" x="69.82"/><use xlink:href="#DejaVuSans-46" x="139.31"/><use xlink:href="#DejaVuSans-32" x="196.83"/><use xlink:href="#DejaVuSans-35" x="260.45"/></g><g id="text_17" style="fill:#fff" transform="matrix(.1 0 0 -.1 58.62 226)"><use xlink:href="#DejaVuSans-43"/><use xlink:href="#DejaVuSans-52" x="69.82"/><use xlink:href="#DejaVuSans-46" x="139.31"/><use xlink:href="#DejaVuSans-34" x="196.83"/><use xlink:href="#DejaVuSans-30" x="260.45"/></g><g id="text_18" style="fill:#fff" transform="matrix(.1 0 0 -.1 378.05 38.43)"><use xlink:href="#DejaVuSans-43"/><use xlink:href="#DejaVuSans-52" x="69.82"/><use xlink:href="#DejaVuSans-46" x="139.31"/><use xlink:href="#DejaVuSans-34" x="196.83"/><use xlink:href="#DejaVuSans-35" x="260.45"/></g><g id="text_19" style="fill:#fff" transform="matrix(.12 0 0 -.12 181.85 20.16)"><defs><path id="DejaVuSansMono-66" d="M3322 4863v-479h-653q-310 0-430-127-120-126-120-448v-309h1203v-447H2119V0h-575v3053H609v447h935v244q0 575 264 847t823 272h691z" transform="scale(.01563)"/><path id="DejaVuSansMono-64" d="M2681 3053v1810h575V0h-575v441q-143-260-383-396-239-136-551-136-634 0-999 492-364 493-364 1358 0 854 366 1339 366 486 997 486 316 0 556-136 241-135 378-395zM991 1747q0-669 212-1010 213-340 628-340 416 0 633 343 217 344 217 1007 0 666-217 1008t-633 342q-415 0-628-341-212-340-212-1009z" transform="scale(.01563)"/><path id="DejaVuSansMono-5f" d="M3853-1259v-250H0v250h3853z" transform="scale(.01563)"/><path id="DejaVuSansMono-6c" d="M1997 1269q0-388 142-585 142-196 420-196h672V0h-728q-515 0-798 331-283 332-283 938v3178H500v450h1497V1269z" transform="scale(.01563)"/><path id="DejaVuSansMono-3a" d="M1528 3322h788v-947h-788v947zm0-2369h788V0h-788v953z" transform="scale(.01563)"/><path id="DejaVuSansMono-68" d="M3284 2169V0h-578v2169q0 472-166 693-165 222-518 222-403 0-621-286-217-285-217-820V0H609v4863h575V2975q154 300 416 454 263 155 622 155 534 0 798-352 264-351 264-1063z" transform="scale(.01563)"/><path id="DejaVuSansMono-36" d="M3097 4563v-582q-197 116-419 177t-462 61q-600 0-910-452-309-451-309-1329 150 312 415 479 266 167 610 167 675 0 1045-414 371-414 371-1173 0-756-382-1172Q2675-91 1984-91q-812 0-1190 583T416 2328q0 1181 454 1801 455 621 1318 621 231 0 462-49 231-48 447-138zM1972 2591q-403 0-635-291-231-291-231-803 0-513 231-804 232-290 635-290 419 0 631 276 213 277 213 818 0 544-213 819-212 275-631 275z" transform="scale(.01563)"/><path id="DejaVuSansMono-34" d="M2297 4091 825 1625h1472v2466zm-103 575h731V1625h622v-512h-622V0h-628v1113H319v596l1875 2957z" transform="scale(.01563)"/><path id="DejaVuSansMono-76" d="M313 3500h596L1925 563l1019 2937h597L2297 0h-741L313 3500z" transform="scale(.01563)"/></defs><use xlink:href="#DejaVuSansMono-66"/><use xlink:href="#DejaVuSansMono-6f" x="60.21"/><use xlink:href="#DejaVuSansMono-6f" x="120.41"/><use xlink:href="#DejaVuSansMono-64" x="180.62"/><use xlink:href="#DejaVuSansMono-6d" x="240.82"/><use xlink:href="#DejaVuSansMono-61" x="301.03"/><use xlink:href="#DejaVuSansMono-72" x="361.23"/><use xlink:href="#DejaVuSansMono-6b" x="421.44"/><use xlink:href="#DejaVuSansMono-65" x="481.64"/><use xlink:href="#DejaVuSansMono-74" x="541.85"/><use xlink:href="#DejaVuSansMono-5f" x="602.05"/><use xlink:href="#DejaVuSansMono-6c" x="662.26"/><use xlink:href="#DejaVuSansMono-6f" x="722.46"/><use xlink:href="#DejaVuSansMono-73" x="782.67"/><use xlink:href="#DejaVuSansMono-73" x="842.87"/><use xlink:href="#DejaVuSansMono-6c" x="903.08"/><use xlink:href="#DejaVuSansMono-65" x="963.28"/><use xlink:href="#DejaVuSansMono-73" x="1023.49"/><use xlink:href="#DejaVuSansMono-73" x="1083.69"/><use xlink:href="#DejaVuSansMono-32" x="1143.9"/><use xlink:href="#DejaVuSansMono-3a" x="1204.1"/><use xlink:href="#DejaVuSansMono-20" x="1264.31"/><use xlink:href="#DejaVuSansMono-68" x="1324.51"/><use xlink:href="#DejaVuSansMono-32" x="1384.72"/><use xlink:href="#DejaVuSansMono-36" x="1444.92"/><use xlink:href="#DejaVuSansMono-34" x="1505.13"/><use xlink:href="#DejaVuSansMono-5f" x="1565.33"/><use xlink:href="#DejaVuSansMono-76" x="1625.54"/><use xlink:href="#DejaVuSansMono-74" x="1685.74"/><use xlink:href="#DejaVuSansMono-20" x="1745.95"/><use xlink:href="#DejaVuSansMono-76" x="1806.15"/><use xlink:href="#DejaVuSansMono-73" x="1866.36"/><use xlink:href="#DejaVuSansMono-20" x="1926.56"/><use xlink:href="#DejaVuSansMono-68" x="1986.77"/><use xlink:href="#DejaVuSansMono-65" x="2046.97"/><use xlink:href="#DejaVuSansMono-76" x="2107.18"/><use xlink:href="#DejaVuSansMono-63" x="2167.38"/><use xlink:href="#DejaVuSansMono-5f" x="2227.59"/><use xlink:href="#DejaVuSansMono-76" x="2287.79"/><use xlink:href="#DejaVuSansMono-74" x="2348"/><use xlink:href="#DejaVuSansMono-20" x="2408.2"/><use xlink:href="#DejaVuSansMono-28" x="2468.41"/><use xlink:href="#DejaVuSansMono-53" x="2528.61"/><use xlink:href="#DejaVuSansMono-53" x="2588.82"/><use xlink:href="#DejaVuSansMono-49" x="2649.02"/><use xlink:href="#DejaVuSansMono-4d" x="2709.23"/><use xlink:href="#DejaVuSansMono-55" x="2769.43"/><use xlink:href="#DejaVuSansMono-4c" x="2829.64"/><use xlink:href="#DejaVuSansMono-41" x="2889.84"/><use xlink:href="#DejaVuSansMono-43" x="2950.05"/><use xlink:href="#DejaVuSansMono-52" x="3010.25"/><use xlink:href="#DejaVuSansMono-41" x="3070.46"/><use xlink:href="#DejaVuSansMono-32" x="3130.66"/><use xlink:href="#DejaVuSansMono-29" x="3190.87"/></g><g id="legend_1"><path id="patch_7" d="M629.94 70.07h72.26q2 0 2-2V39.16q0-2-2-2h-72.26q-2 0-2 2v28.91q0 2 2 2z" style="opacity:.8;stroke:gray;stroke-linejoin:miter"/><g id="line2d_27"><path d="M631.94 45.26h20" style="fill:none;stroke-dasharray:9.6,2.4,1.5,2.4;stroke-dashoffset:0;stroke:#8dd3c7;stroke-width:1.5"/><use xlink:href="#m0f926a159b" x="641.94" y="45.26" style="fill:#8dd3c7;stroke:#8dd3c7"/></g><g id="text_20" style="fill:#fff" transform="matrix(.1 0 0 -.1 659.94 48.76)"><defs><path id="DejaVuSans-68" d="M3513 2113V0h-575v2094q0 497-194 743-194 247-581 247-466 0-735-297-269-296-269-809V0H581v4863h578V2956q207 316 486 472 280 156 646 156 603 0 912-373 310-373 310-1098z" transform="scale(.01563)"/><path id="DejaVuSans-5f" d="M3263-1063v-446H-63v446h3326z" transform="scale(.01563)"/><path id="DejaVuSans-76" d="M191 3500h609L1894 563l1094 2937h609L2284 0h-781L191 3500z" transform="scale(.01563)"/><path id="DejaVuSans-74" d="M1172 4494v-994h1184v-447H1172V1153q0-428 117-550t477-122h590V0h-590q-666 0-919 248-253 249-253 905v1900H172v447h422v994h578z" transform="scale(.01563)"/></defs><use xlink:href="#DejaVuSans-68"/><use xlink:href="#DejaVuSans-32" x="63.38"/><use xlink:href="#DejaVuSans-36" x="127"/><use xlink:href="#DejaVuSans-34" x="190.63"/><use xlink:href="#DejaVuSans-5f" x="254.25"/><use xlink:href="#DejaVuSans-76" x="304.25"/><use xlink:href="#DejaVuSans-74" x="363.43"/></g><g id="line2d_28"><path d="M631.94 60.21h20" style="fill:none;stroke-dasharray:9.6,2.4,1.5,2.4;stroke-dashoffset:0;stroke:#feffb3;stroke-width:1.5"/><use xlink:href="#m755a35b9d5" x="641.94" y="60.21" style="fill:#feffb3;stroke:#feffb3"/></g><g id="text_21" style="fill:#fff" transform="matrix(.1 0 0 -.1 659.94 63.71)"><defs><path id="DejaVuSans-65" d="M3597 1894v-281H953q38-594 358-905t892-311q331 0 642 81t618 244V178Q3153 47 2828-22t-659-69q-838 0-1327 487-489 488-489 1320 0 859 464 1363 464 505 1252 505 706 0 1117-455 411-454 411-1235zm-575 169q-6 471-264 752-258 282-683 282-481 0-770-272t-333-766l2050 4z" transform="scale(.01563)"/><path id="DejaVuSans-63" d="M3122 3366v-538q-244 135-489 202t-495 67q-560 0-870-355-309-354-309-995t309-996q310-354 870-354 250 0 495 67t489 202V134Q2881 22 2623-34q-257-57-548-57-791 0-1257 497-465 497-465 1341 0 856 470 1346 471 491 1290 491 265 0 518-55 253-54 491-163z" transform="scale(.01563)"/></defs><use xlink:href="#DejaVuSans-68"/><use xlink:href="#DejaVuSans-65" x="63.38"/><use xlink:href="#DejaVuSans-76" x="124.9"/><use xlink:href="#DejaVuSans-63" x="184.08"/><use xlink:href="#DejaVuSans-5f" x="239.06"/><use xlink:href="#DejaVuSans-76" x="289.06"/><use xlink:href="#DejaVuSans-74" x="348.24"/></g></g></g></g><defs><clipPath id="p30d6ae103b"><path d="M44.62 32.16h664.59v357.88H44.62z"/></clipPath></defs></svg>